<?xml version="1.0" encoding="UTF-8"?>
<svg width="14px" height="14px" viewBox="0 0 14 14" version="1.1" xmlns="http://www.w3.org/2000/svg" xmlns:xlink="http://www.w3.org/1999/xlink">
    <!-- Generator: Sketch 50.2 (55047) - http://www.bohemiancoding.com/sketch -->
    <title>微信支付 copy</title>
    <desc>Created with Sketch.</desc>
    <defs></defs>
    <g id="前端" stroke="none" stroke-width="1" fill="none" fill-rule="evenodd">
        <g id="微信支付-copy" fill-rule="nonzero">
            <rect id="Rectangle-path" fill="#000000" opacity="0" x="0" y="0" width="14" height="14"></rect>
            <path d="M5.3350325,8.6282175 C4.49743,9.0933325 4.3731975,8.3671 4.3731975,8.3671 L3.3234425,5.9271275 C2.919525,4.7676825 3.6730225,5.40435 3.6730225,5.40435 C3.6730225,5.40435 4.31956,5.8915325 4.8102425,6.1884025 C5.3006625,6.4852725 5.859665,6.2755525 5.859665,6.2755525 L12.722465,3.12039 C11.456305,1.5511125 9.3647225,0.525 6.9967975,0.525 C3.1323775,0.525 0,3.2557175 0,6.624415 C0,8.5620675 1.037225,10.28664 2.652825,11.4044 L2.3614675,13.0726225 C2.3614675,13.0726225 2.2194375,13.5596475 2.7116775,13.3337575 C3.0471,13.17974 3.9022025,12.627825 4.411225,12.29193 C5.2114475,12.56969 6.0832625,12.7239175 6.9971825,12.7239175 C10.8612875,12.7239175 13.9943125,9.9932 13.9943125,6.6244325 C13.9943125,5.648685 13.7303075,4.727205 13.262655,3.9092725 C11.0761525,5.2196375 5.9904425,8.2648825 5.3350325,8.6282175 Z" id="Shape" fill="#3CB271"></path>
        </g>
    </g>
</svg>